<svg viewBox="0 0 24 24" xmlns="http://www.w3.org/2000/svg">
  <!-- capa 1: misma silueta en blanco con stroke para crear borde exterior visible -->
  <path d="M3 13
    C2.5 10 4 7.5 7 7
    C8 6.5 8.5 7.5 10 7.5
    C10.5 7.5 11 7 12 6.5
    C14 5.5 16.5 6.5 18.5 7.5
    C20.5 8.5 22 11 21.5 13.5
    C21 16 19 18 16 18
    C14 18.5 12 18 10 18
    C8 18 6 17.5 4.5 16
    C3.5 15 3 14 3 13Z"
    fill="white" stroke="white" stroke-width="2.5" stroke-linejoin="round"/>
  <!-- capa 2: filete rojo encima -->
  <path d="M3 13
    C2.5 10 4 7.5 7 7
    C8 6.5 8.5 7.5 10 7.5
    C10.5 7.5 11 7 12 6.5
    C14 5.5 16.5 6.5 18.5 7.5
    C20.5 8.5 22 11 21.5 13.5
    C21 16 19 18 16 18
    C14 18.5 12 18 10 18
    C8 18 6 17.5 4.5 16
    C3.5 15 3 14 3 13Z"
    fill="#C62828"/>
  <!-- detalle grasa interior blanco ovalado, pequeño y lateral -->
  <ellipse cx="9" cy="12" rx="2" ry="1.2" fill="#FFEBEE"/>
</svg>
