<svg viewBox="0 0 24 24" xmlns="http://www.w3.org/2000/svg">
  <!-- hojas verdes -->
  <path d="M10.2 8.5C9.5 6.5 7.5 4.5 8.5 2.5C9.8 3.5 10.8 6 10.2 8.5Z" fill="#43A047"/>
  <path d="M12 7.5C12 5 11.5 2.5 12 2C12.5 2.5 12 5 12 7.5Z" fill="#388E3C"/>
  <path d="M13.8 8.5C14.5 6.5 16.5 4.5 15.5 2.5C14.2 3.5 13.2 6 13.8 8.5Z" fill="#43A047"/>
  <!-- cuerpo zanahoria naranja -->
  <path d="M9.5 8C8.8 10.5 8.5 13.5 9.2 16L11.7 22.5H12.3L14.8 16C15.5 13.5 15.2 10.5 14.5 8Z" fill="#F57C00"/>
  <ellipse cx="12" cy="8" rx="2.5" ry="1.2" fill="#FF8F00"/>
</svg>
